# xmcd
# Copyright (C) 1995-1998 Ti Kan
#
# Track frame offsets:
#       150
#       15327
#       31430
#       46234
#       63845
#       80201
#       96639
#       112004
#       123535
#       137939
#       154336
#       170242
#       186837
#       202737
#       216477
#
# Disc length: 3081 seconds
#
# Revision: 0
# Processed by: cddbd v1.5.2PL0 Copyright (c) Steve Scherf et al.
# Submitted via: CD-Transfer v1.0
#
DISCID=e10c070f
DTITLE=Martens,Ralph - 
DYEAR=2006
DGENRE=
TTITLE0=Schweizer Meitschi
TTITLE1=Jedes Spiel Het Ä Verlierer
TTITLE2=Dr Alti Ma
TTITLE3=I Wet Gah
TTITLE4=Nidleloch
TTITLE5=Tusig Rosä
TTITLE6=I Ha Sho Immer Tröimt
TTITLE7=Auts Bläch
TTITLE8=Ig Lose Immer Mumä Mozart
TTITLE9=Kensch Mörphi
TTITLE10=Ä Träne I Dine Ouge
TTITLE11=Mir Mache Ä Party
TTITLE12=I Chume Ni Los Vo Dir
TTITLE13=I Wet Mou Gärn Ä Boum Si
TTITLE14=I Liebä Blues Und Rock
EXTD=
EXTT0=
EXTT1=
EXTT2=
EXTT3=
EXTT4=
EXTT5=
EXTT6=
EXTT7=
EXTT8=
EXTT9=
EXTT10=
EXTT11=
EXTT12=
EXTT13=
EXTT14=
PLAYORDER=
